<?xml version="1.0" encoding="UTF-8"?>
<svg width="38px" height="30px" viewBox="0 0 38 30" version="1.1" xmlns="http://www.w3.org/2000/svg" xmlns:xlink="http://www.w3.org/1999/xlink">
    <!-- Generator: Sketch 52.5 (67469) - http://www.bohemiancoding.com/sketch -->
    <title>00. Logo</title>
    <desc>Created with Sketch.</desc>
    <g id="Symbols" stroke="none" stroke-width="1" fill="none" fill-rule="evenodd">
        <g id="Footer-1440---Black" transform="translate(-80.000000, -65.000000)">
            <g id="00.-Logo">
                <g transform="translate(67.000000, 48.000000)">
                    <g id="ngb_solid_white">
                        <rect id="safe-area" fill-rule="nonzero" x="0" y="0" width="64" height="64"></rect>
                        <path d="M20.6272,30.6304 C20.5043362,30.6297953 20.3910311,30.5640053 20.3296,30.4576 L16.5184,23.6448 C16.48,23.5264 16.3456,23.568 16.3456,23.6832 L16.3456,30.2912 C16.3456162,30.3822814 16.309002,30.4695425 16.2439987,30.533342 C16.1789953,30.5971416 16.0910652,30.6321185 16,30.6304 L13.9616,30.6304 C13.8713766,30.6312634 13.7845972,30.5958037 13.7207967,30.5320033 C13.6569963,30.4682028 13.6215366,30.3814234 13.6224,30.2912 L13.6224,17.3568 C13.6215366,17.2665766 13.6569963,17.1797972 13.7207967,17.1159967 C13.7845972,17.0521963 13.8713766,17.0167366 13.9616,17.0176 L16.32,17.0176 C16.544366,17.0036963 16.7475935,17.1494318 16.8064,17.3664 L20.2624,24.5888 C20.3008,24.704 20.4288,24.6656 20.4288,24.5504 L20.4288,17.3568 C20.4279366,17.2665766 20.4633963,17.1797972 20.5271967,17.1159967 C20.5909972,17.0521963 20.6777766,17.0167366 20.768,17.0176 L22.8096,17.0176 C22.9001146,17.0167461 22.9872158,17.0521058 23.0515219,17.1158109 C23.1158281,17.179516 23.152004,17.2662814 23.152,17.3568 L23.152,30.2912 C23.152004,30.3817186 23.1158281,30.468484 23.0515219,30.5321891 C22.9872158,30.5958942 22.9001146,30.6312539 22.8096,30.6304 L20.6272,30.6304 Z M38.8096,30.6304 C37.5453421,30.6312491 36.3325743,30.1296196 35.4383088,29.2359543 C34.5440432,28.3422889 34.0415997,27.1298582 34.0416,25.8656 L34.0416,17.3568 C34.041596,17.2662814 34.0777719,17.179516 34.1420781,17.1158109 C34.2063842,17.0521058 34.2934854,17.0167461 34.384,17.0176 L36.4448,17.0176 C36.537749,17.0122741 36.6287412,17.0457533 36.6960728,17.110052 C36.7634045,17.1743507 36.8010391,17.2637043 36.8,17.3568 L36.8,25.8752 C36.7999993,26.4146748 37.0145236,26.9320075 37.3962899,27.3131735 C37.7780562,27.6943396 38.2957259,27.9080496 38.8352,27.9072 C39.9574426,27.9072 40.8672,26.9974426 40.8672,25.8752 L40.8672,17.3568 C40.8663366,17.2665766 40.9017963,17.1797972 40.9655967,17.1159967 C41.0293972,17.0521963 41.1161766,17.0167366 41.2064,17.0176 L43.248,17.0176 C43.3385146,17.0167461 43.4256158,17.0521058 43.4899219,17.1158109 C43.5542281,17.179516 43.590404,17.2662814 43.5904,17.3568 L43.5904,25.8656 C43.5904071,27.1320806 43.0862071,28.3464572 42.1891703,29.2404919 C41.2921335,30.1345266 40.0760735,30.6346528 38.8096,30.6304 Z M20.5184,42.7744 L20.5184,41.8624 C20.5184,41.6732977 20.3651023,41.52 20.176,41.52 L18.0736,41.52 C17.886265,41.52 17.7344,41.368135 17.7344,41.1808 L17.7344,39.1744 C17.7343918,38.9865404 17.8857486,38.8337557 18.0736,38.832 L22.8,38.832 C22.9891023,38.832 23.1424,38.9852977 23.1424,39.1744 L23.1424,42.7744 C23.1424,45.072 20.9472,46.9696 18.3232,46.9696 C15.6992,46.9696 14.032,45.0336 13.76,42.736 C13.571191,41.0249261 13.571191,39.2982739 13.76,37.5872 C14.0288,35.2896 15.68,33.3536 18.32,33.3536 C20.72,33.3536 22.736,34.8608 23.0848,37.0464 C23.1018582,37.1444248 23.0745939,37.2449689 23.0103517,37.3209478 C22.9461094,37.3969266 22.8514966,37.4405256 22.752,37.44 L20.6848,37.44 C20.53997,37.4361495 20.4125995,37.343169 20.3648,37.2064 C20.0778909,36.4646696 19.3549712,35.9840049 18.56,36.0064 C17.392,36.0064 16.5696,36.7456 16.4736,37.5872 C16.284791,39.2982739 16.284791,41.0249261 16.4736,42.736 C16.5696,43.5776 17.392,44.2208 18.56,44.2208 C19.728,44.2208 20.5184,43.6352 20.5184,42.7744 Z M36.7232,43.9456 C36.7232,44.1347023 36.8764977,44.288 37.0656,44.288 L40.5088,44.288 C40.5993146,44.2871461 40.6864158,44.3225058 40.7507219,44.3862109 C40.8150281,44.449916 40.851204,44.5366814 40.8512,44.6272 L40.8512,46.6272 C40.8512,46.8163023 40.6979023,46.9696 40.5088,46.9696 L34.384,46.9696 C34.1948977,46.9696 34.0416,46.8163023 34.0416,46.6272 L34.0416,33.696 C34.0416,33.5068977 34.1948977,33.3536 34.384,33.3536 L36.384,33.3536 C36.4745186,33.353596 36.561284,33.3897719 36.6249891,33.4540781 C36.6886942,33.5183842 36.7240539,33.6054854 36.7232,33.696 L36.7232,43.9456 Z M50.208,37.2608 C50.208,38.1056 49.6768,39.5008 49.1232,40.0448 C49.008,40.16 49.008,40.1536 49.1232,40.2496 C49.8616476,40.9124696 50.307015,41.8411814 50.3616,42.832 C50.3616,45.3408 48.7904,46.9696 46.4352,46.9696 L42.56,46.9696 C42.3708977,46.9696 42.2176,46.8163023 42.2176,46.6272 L42.2176,33.696 C42.2176,33.5068977 42.3708977,33.3536 42.56,33.3536 L46.4416,33.3536 C47.4622934,33.3626562 48.4364662,33.7817936 49.1448712,34.5166809 C49.8532761,35.2515683 50.2363939,36.2404614 50.208,37.2608 Z M47.68,37.44 C47.68,36.6871254 47.0696746,36.0768 46.3168,36.0768 L45.2608,36.0768 C45.1702814,36.076796 45.083516,36.1129719 45.0198109,36.1772781 C44.9561058,36.2415842 44.9207461,36.3286854 44.9216,36.4192 L44.9216,38.464 C44.9216,38.651335 45.073465,38.8032 45.2608,38.8032 L46.3168,38.8032 C47.0696746,38.8032 47.68,38.1928746 47.68,37.44 Z M46.304,41.504 L45.2608,41.504 C45.1702814,41.503996 45.083516,41.5401719 45.0198109,41.6044781 C44.9561058,41.6687842 44.9207461,41.7558854 44.9216,41.8464 L44.9216,43.8848 C44.9207461,43.9753146 44.9561058,44.0624158 45.0198109,44.1267219 C45.083516,44.1910281 45.1702814,44.227204 45.2608,44.2272 L46.304,44.2272 C47.0556517,44.2343095 47.671211,43.6316339 47.68,42.88 C47.6808713,42.5156738 47.5358702,42.1661584 47.2773517,41.9094435 C47.0188332,41.6527286 46.6683112,41.510178 46.304,41.5136 L46.304,41.504 Z M27.2352,27.568 C27.235196,27.6585186 27.2713719,27.745284 27.3356781,27.8089891 C27.3999842,27.8726942 27.4870854,27.9080539 27.5776,27.9072 L32.3424,27.9072 C32.5302514,27.9089557 32.6816082,28.0617404 32.6816,28.2496 L32.6816,30.2912 C32.6816,30.3811614 32.645863,30.4674383 32.5822506,30.5310506 C32.5186383,30.594663 32.4323614,30.6304 32.3424,30.6304 L24.8544,30.6304 C24.7638854,30.6312539 24.6767842,30.5958942 24.6124781,30.5321891 C24.5481719,30.468484 24.511996,30.3817186 24.512,30.2912 L24.512,17.3568 C24.511996,17.2662814 24.5481719,17.179516 24.6124781,17.1158109 C24.6767842,17.0521058 24.7638854,17.0167461 24.8544,17.0176 L32.3424,17.0176 C32.529735,17.0176 32.6816,17.169465 32.6816,17.3568 L32.6816,19.3984 C32.6816082,19.5862596 32.5302514,19.7390443 32.3424,19.7408 L27.5776,19.7408 C27.4870854,19.7399461 27.3999842,19.7753058 27.3356781,19.8390109 C27.2713719,19.902716 27.235196,19.9894814 27.2352,20.08 L27.2352,22.1216 C27.2352,22.3107023 27.3884977,22.464 27.5776,22.464 L32.3424,22.464 C32.529735,22.464 32.6816,22.615865 32.6816,22.8032 L32.6816,24.8448 C32.6816082,25.0326596 32.5302514,25.1854443 32.3424,25.1872 L27.5776,25.1872 C27.4870854,25.1863461 27.3999842,25.2217058 27.3356781,25.2854109 C27.2713719,25.349116 27.235196,25.4358814 27.2352,25.5264 L27.2352,27.568 Z M27.2352,43.904 C27.2352,44.0931023 27.3884977,44.2464 27.5776,44.2464 L32.3424,44.2464 C32.529735,44.2464 32.6816,44.398265 32.6816,44.5856 L32.6816,46.6272 C32.6816082,46.8150596 32.5302514,46.9678443 32.3424,46.9696 L24.8544,46.9696 C24.6652977,46.9696 24.512,46.8163023 24.512,46.6272 L24.512,33.696 C24.512,33.5068977 24.6652977,33.3536 24.8544,33.3536 L32.3424,33.3536 C32.5302514,33.3553557 32.6816082,33.5081404 32.6816,33.696 L32.6816,35.7376 C32.6816,35.8275614 32.645863,35.9138383 32.5822506,35.9774506 C32.5186383,36.041063 32.4323614,36.0768 32.3424,36.0768 L27.5776,36.0768 C27.3884977,36.0768 27.2352,36.2300977 27.2352,36.4192 L27.2352,38.4608 C27.235196,38.5513186 27.2713719,38.638084 27.3356781,38.7017891 C27.3999842,38.7654942 27.4870854,38.8008539 27.5776,38.8 L32.3424,38.8 C32.5290112,38.801736 32.679864,38.9525888 32.6816,39.1392 L32.6816,41.184 C32.679864,41.3706112 32.5290112,41.521464 32.3424,41.5232 L27.5776,41.5232 C27.3897404,41.5231918 27.2369557,41.6745486 27.2352,41.8624 L27.2352,43.904 Z" id="ngb-logo" fill="#FDFDFD" fill-rule="nonzero"></path>
                    </g>
                </g>
            </g>
        </g>
    </g>
</svg>